<svg width="24" height="24" viewBox="0 0 24 24" fill="none" xmlns="http://www.w3.org/2000/svg"><path fill-rule="evenodd" clip-rule="evenodd" d="M19.086 4.907a9.896 9.896 0 00-3.23-2.156A9.934 9.934 0 0012.043 2c-5.488 0-9.957 4.446-9.959 9.91 0 1.747.458 3.452 1.33 4.955L2 22l5.279-1.379a10 10 0 004.759 1.207h.004c5.488 0 9.956-4.446 9.958-9.91a9.816 9.816 0 00-2.914-7.011zm-7.044 15.248h-.003a8.29 8.29 0 01-4.213-1.149l-.302-.179-3.132.818.835-3.04-.197-.31a8.194 8.194 0 01-1.265-4.384c.002-4.542 3.715-8.237 8.28-8.237a8.257 8.257 0 015.852 2.415 8.158 8.158 0 012.422 5.828c-.003 4.542-3.716 8.238-8.277 8.238zm4.54-6.17c-.25-.125-1.472-.723-1.7-.806-.228-.083-.393-.124-.56.124-.166.247-.643.804-.788.97-.145.166-.29.186-.539.062-.248-.124-1.05-.385-2.001-1.229-.74-.657-1.24-1.467-1.384-1.715-.146-.249-.016-.382.11-.506.111-.11.248-.29.372-.434.124-.145.165-.247.248-.413.084-.165.043-.31-.02-.434s-.56-1.343-.768-1.839c-.2-.48-.406-.416-.56-.423-.158-.006-.316-.01-.475-.009a.92.92 0 00-.665.31c-.228.248-.87.846-.87 2.065 0 1.219.892 2.397 1.016 2.563.124.165 1.755 2.666 4.25 3.739.595.255 1.059.407 1.42.522.595.189 1.137.161 1.567.098.478-.07 1.472-.598 1.679-1.177.207-.578.207-1.074.145-1.178-.062-.103-.23-.166-.477-.29z" fill="#fff"/></svg>